<?xml version="1.0" standalone="no"?>
<!DOCTYPE svg PUBLIC "-//W3C//DTD SVG 20010904//EN"
 "http://www.w3.org/TR/2001/REC-SVG-20010904/DTD/svg10.dtd">
<svg version="1.0" xmlns="http://www.w3.org/2000/svg"
 width="541.000000pt" height="563.000000pt" viewBox="0 0 541.000000 563.000000"
 preserveAspectRatio="xMidYMid meet">

<g transform="translate(0.000000,563.000000) scale(0.100000,-0.100000)"
fill="#000000" stroke="none">
<path d="M0 2815 l0 -2815 2705 0 2705 0 0 2815 0 2815 -2705 0 -2705 0 0
-2815z m2928 1110 c526 -86 955 -482 1086 -1002 14 -56 28 -137 32 -179 l7
-77 -41 33 c-23 18 -44 42 -48 54 -10 33 -64 85 -114 111 -105 52 -253 86
-463 105 l-118 10 -97 67 c-120 82 -271 155 -377 182 -229 59 -597 54 -809
-10 -83 -25 -94 -31 -221 -135 -130 -106 -214 -159 -280 -179 -33 -9 -62 -25
-74 -41 -27 -35 -26 -19 5 96 32 120 135 334 208 431 74 98 193 217 288 289
147 111 380 210 573 244 108 19 328 19 443 1z m-681 -780 c47 -28 112 -108
137 -169 21 -52 21 -56 -12 -56 -21 0 -32 8 -47 37 -22 40 -68 73 -101 73 -29
0 -74 -37 -74 -61 0 -17 7 -19 58 -19 31 0 64 -5 72 -10 10 -6 -39 -10 -149
-10 l-164 0 7 43 c4 23 17 65 31 92 l24 50 -29 -35 c-16 -19 -42 -63 -57 -97
l-27 -62 -75 -7 c-42 -3 -97 -10 -123 -14 l-47 -7 22 31 c51 73 153 158 247
206 107 55 228 61 307 15z m648 1 c100 -30 220 -91 279 -140 l38 -33 -233 -7
c-129 -3 -295 -9 -369 -12 l-135 -5 -58 83 c-32 46 -70 98 -84 117 l-27 33
249 -4 c237 -5 255 -6 340 -32z m-159 -261 c168 -16 313 -38 378 -57 58 -18
176 -133 176 -173 0 -23 -279 21 -333 53 -27 16 -32 24 -32 57 0 33 -5 42 -30
56 -38 22 -148 44 -290 59 -60 7 -112 14 -114 16 -9 8 90 4 245 -11z m-416
-27 c114 -11 128 -14 90 -19 -25 -4 -76 -8 -115 -8 -218 -3 -626 -73 -824
-141 -34 -12 -65 -20 -68 -16 -9 9 6 69 26 102 27 44 92 59 381 87 89 9 388 6
510 -5z m-162 -1010 c7 -7 12 -24 12 -38 0 -33 -17 -50 -51 -50 -32 0 -59 23
-59 50 0 41 68 68 98 38z m172 2 c0 -5 -7 -10 -15 -10 -11 0 -15 -11 -15 -40
0 -33 -3 -40 -20 -40 -17 0 -20 7 -20 50 l0 50 35 0 c19 0 35 -4 35 -10z m168
-42 l3 -48 -40 0 c-48 0 -55 9 -46 61 7 39 8 40 43 37 36 -3 37 -4 40 -50z
m190 0 c2 -37 0 -48 -12 -48 -10 0 -16 12 -18 37 -4 52 -28 56 -28 4 0 -34 -3
-41 -20 -41 -17 0 -20 7 -20 51 l0 50 48 -3 47 -3 3 -47z m192 -6 c0 -68 -11
-82 -62 -82 -29 0 -36 3 -32 15 4 10 14 13 29 9 15 -4 24 0 28 10 5 12 0 16
-16 16 -29 0 -47 18 -47 45 0 31 19 45 62 45 l38 0 0 -58z m184 42 c13 -35 7
-44 -31 -44 -32 -1 -35 -2 -20 -11 10 -6 25 -8 33 -5 8 3 14 -1 14 -9 0 -10
-11 -15 -33 -15 -40 0 -57 15 -57 50 0 14 5 31 12 38 18 18 75 15 82 -4z m166
6 c0 -5 -7 -10 -15 -10 -11 0 -15 -11 -15 -40 0 -33 -3 -40 -20 -40 -17 0 -20
7 -20 50 l0 50 35 0 c19 0 35 -4 35 -10z m157 -2 c-2 -7 -11 -12 -21 -10 -23
4 -20 -15 4 -21 14 -3 20 -14 20 -31 0 -24 -4 -26 -40 -26 -29 0 -40 4 -40 15
0 12 7 14 28 10 26 -6 26 -6 8 9 -11 9 -23 16 -28 16 -10 0 -11 34 -1 43 12
13 75 8 70 -5z"/>
<path d="M2464 3705 l-21 -24 23 -22 c13 -12 25 -21 27 -18 1 2 10 13 20 25
16 20 16 21 -6 42 l-22 21 -21 -24z"/>
<path d="M3300 3381 c0 -22 -51 -71 -74 -72 -20 -1 -20 -1 -1 -6 27 -7 75 -53
75 -72 1 -12 3 -11 12 4 20 36 51 65 72 66 20 1 20 1 1 6 -27 7 -45 22 -67 58
-10 17 -18 23 -18 16z"/>
<path d="M1796 2990 c-25 -27 -46 -52 -46 -55 0 -3 9 -5 19 -5 13 0 29 18 49
55 17 30 29 55 27 55 -1 0 -23 -22 -49 -50z"/>
<path d="M2104 1826 c-8 -22 3 -49 19 -43 6 2 12 14 12 27 0 27 -22 39 -31 16z"/>
<path d="M2438 1833 c6 -2 18 -2 25 0 6 3 1 5 -13 5 -14 0 -19 -2 -12 -5z"/>
<path d="M2447 1804 c-8 -8 1 -24 14 -24 5 0 9 7 9 15 0 15 -12 20 -23 9z"/>
<path d="M2819 1824 c-10 -13 -10 -17 1 -24 18 -11 30 -3 30 21 0 23 -13 25
-31 3z"/>
<path d="M3005 1830 c-3 -5 3 -10 15 -10 12 0 18 5 15 10 -3 6 -10 10 -15 10
-5 0 -12 -4 -15 -10z"/>
</g>
</svg>
